<svg width="300" height="200" viewBox="0 0 300 200" fill="none" xmlns="http://www.w3.org/2000/svg">
<g clip-path="url(#clip0_105_516)">
<path d="M53.8 100.901C53.5916 101.184 53.3257 101.417 53.021 101.582C52.7162 101.748 52.3801 101.842 52.0362 101.859C51.6923 101.876 51.349 101.814 51.0305 101.679C50.712 101.544 50.4261 101.338 50.1929 101.076L42.5186 104.527L43.2661 100.098L50.4392 97.5002C50.8906 97.1243 51.4597 96.9326 52.0387 96.9615C52.6177 96.9905 53.1662 97.2379 53.5805 97.6571C53.9948 98.0762 54.2459 98.6379 54.2864 99.2357C54.3268 99.8335 54.1538 100.426 53.8 100.901V100.901Z" fill="#A0616A"/>
<path d="M48.6789 102.283L30.8539 110.492L30.8156 110.478L10.4996 102.993C8.98638 102.176 7.83268 100.791 7.27476 99.1226C6.71685 97.4542 6.79693 95.6285 7.49862 94.0192C7.88756 93.1301 8.45424 92.3362 9.16136 91.6897C9.86848 91.0433 10.7 90.5591 11.6012 90.2689C12.5024 89.9786 13.4528 89.889 14.3899 90.0059C15.327 90.1228 16.2296 90.4436 17.0381 90.9471L32.157 100.363L46.8176 98.3984L48.6789 102.283Z" fill="#3F3D56"/>
<path d="M56.1466 48.2373C49.4081 32.8279 49.6566 13.2958 60.1145 0.292725C63.6133 18.3236 73.1684 34.494 87.0893 45.9427C92.4734 50.3379 98.9046 54.6468 100.375 61.5743C101.291 65.8847 99.9934 70.4439 97.7507 74.1987C95.5078 77.9535 92.3815 81.0422 89.2907 84.0862L88.944 85.1279C75.4952 75.5016 62.8852 63.6467 56.1466 48.2373Z" fill="#F0F0F0"/>
<path d="M60.4058 0.480754C57.999 14.1056 59.787 28.6136 65.6369 41.0965C66.9016 43.7953 68.4118 46.4192 70.4337 48.5897C72.4203 50.6898 74.9145 52.2016 77.6573 52.9681C80.2009 53.7358 82.8886 54.2167 85.2073 55.6103C87.6514 57.0792 89.1681 59.5439 89.759 62.3704C90.4819 65.8287 89.9598 69.3493 89.3334 72.7739C88.638 76.5761 87.8574 80.5141 88.8652 84.3364C88.9873 84.7995 88.285 84.9683 88.1631 84.5059C86.4098 77.8558 89.8187 71.297 89.3422 64.611C89.1198 61.4912 87.9867 58.4217 85.3993 56.6141C83.1366 55.0335 80.3654 54.5352 77.7835 53.7808C75.0725 52.9887 72.6378 51.7788 70.5661 49.7718C68.4469 47.7188 66.8343 45.1504 65.5083 42.4969C62.545 36.4566 60.5188 29.9721 59.5039 23.281C58.3046 15.6512 58.3766 7.86549 59.7168 0.260774C59.8 -0.209872 60.4884 0.0131759 60.4058 0.480754Z" fill="white"/>
<path d="M63.5284 37.1428C61.3453 37.8661 58.9846 37.7636 56.8678 36.8536C54.7511 35.9436 53.0162 34.2854 51.9729 32.175C51.7632 31.7472 52.3963 31.3903 52.6063 31.8186C53.5743 33.7856 55.1905 35.3301 57.1633 36.1734C59.1361 37.0166 61.3354 37.103 63.3644 36.417C63.8055 36.2684 63.9669 36.9951 63.5283 37.1428L63.5284 37.1428Z" fill="white"/>
<path d="M76.3179 52.7546C78.4993 48.4667 79.0374 43.4864 77.8247 38.8066C77.7042 38.343 78.4064 38.1741 78.5268 38.6371C79.7799 43.5094 79.2098 48.6911 76.9302 53.148C76.7127 53.5726 76.1015 53.177 76.3179 52.7546Z" fill="white"/>
<path d="M59.2313 15.8934C60.1324 15.7955 60.9958 15.4677 61.7441 14.9395C62.4924 14.4114 63.1021 13.6994 63.5184 12.8674C63.7306 12.4401 64.3416 12.8362 64.1307 13.2608C63.6666 14.1777 62.9924 14.9633 62.1669 15.5487C61.3414 16.1341 60.3898 16.5017 59.3952 16.6192C59.3023 16.6384 59.2059 16.6203 59.1255 16.5686C59.0451 16.517 58.9867 16.4356 58.9622 16.341C58.941 16.2448 58.9573 16.1438 59.0077 16.06C59.0581 15.9762 59.1384 15.9163 59.2313 15.8934Z" fill="white"/>
<path d="M115.498 0.443665C115.373 0.714371 115.248 0.985073 115.125 1.26131C113.46 4.90976 112.085 8.69201 111.013 12.5707C110.925 12.8693 110.841 13.1732 110.762 13.4736C108.275 22.8468 107.492 32.616 108.455 42.2844C108.841 46.1313 109.51 49.9423 110.455 53.6843C111.762 58.8521 113.576 64.3479 113.166 69.5081C113.129 70.047 113.06 70.583 112.959 71.113L90.2002 85.4845C90.1326 85.4903 90.068 85.5017 90.0001 85.5077L89.1168 86.1244C89.055 85.935 88.9948 85.7371 88.933 85.5476C88.8967 85.4378 88.8655 85.3249 88.8292 85.2151C88.8066 85.141 88.7842 85.0666 88.7598 85.001C88.7522 84.9763 88.7448 84.9515 88.7403 84.9322C88.7159 84.8666 88.6999 84.8029 88.6785 84.7427C88.3393 83.6376 88.0069 82.528 87.6815 81.4141C87.6783 81.4087 87.6783 81.4087 87.6802 81.4001C85.2216 72.9059 83.4274 64.1249 82.9793 55.3415C82.9659 55.0772 82.9491 54.8077 82.9461 54.5369C82.7654 50.5766 82.8981 46.6076 83.3428 42.6697C83.5931 40.5142 83.9487 38.3732 84.4083 36.2549C85.6062 30.7838 87.629 25.5416 90.4025 20.7204C95.933 11.1102 104.375 3.43558 114.706 0.648611C114.971 0.577477 115.23 0.509379 115.498 0.443665Z" fill="#F0F0F0"/>
<path d="M115.623 0.774638C105.767 10.1553 98.7455 22.8521 96.1467 36.4604C95.5848 39.4024 95.2625 42.4375 95.6128 45.4291C95.9759 48.3424 97.087 51.102 98.8307 53.4212C100.414 55.6175 102.28 57.6743 103.32 60.2303C104.416 62.9244 104.192 65.8365 103.018 68.4611C101.581 71.6724 99.1136 74.1584 96.6192 76.5029C93.8496 79.1059 90.933 81.7643 89.5116 85.4435C89.3394 85.8893 88.6804 85.587 88.8523 85.1419C91.3253 78.7407 97.8667 75.6257 101.38 69.9906C103.019 67.3612 103.902 64.2052 102.889 61.1513C102.003 58.4809 100.08 56.3581 98.4581 54.1487C96.7548 51.8288 95.5155 49.3473 95.0301 46.4553C94.5336 43.497 94.7418 40.4425 95.2285 37.4985C96.3801 30.8311 98.5386 24.3923 101.625 18.4181C105.111 11.5796 109.702 5.40794 115.201 0.170169C115.542 -0.153871 115.961 0.452716 115.623 0.774633V0.774638Z" fill="white"/>
<path d="M96.7662 31.9908C94.6017 31.2095 92.7763 29.6583 91.616 27.6142C90.4557 25.5701 90.0361 23.1662 90.4322 20.8318C90.5139 20.3597 91.2274 20.4688 91.1455 20.9415C90.7729 23.1146 91.1639 25.3538 92.2481 27.255C93.3323 29.1562 95.0383 30.5941 97.0581 31.3093C97.4968 31.4652 97.2025 32.1459 96.7663 31.9908H96.7662Z" fill="white"/>
<path d="M97.8856 52.4168C102.124 50.351 105.454 46.7093 107.212 42.218C107.385 41.7728 108.044 42.075 107.871 42.5196C106.034 47.1899 102.561 50.9723 98.1454 53.112C97.7244 53.3157 97.4669 52.6193 97.8856 52.4168Z" fill="white"/>
<path d="M105.71 12.3497C106.486 12.8322 107.366 13.1078 108.271 13.1518C109.176 13.1959 110.078 13.0069 110.895 12.602C111.313 12.393 111.57 13.0893 111.155 13.2969C110.25 13.7399 109.254 13.9474 108.254 13.901C107.254 13.8546 106.28 13.5559 105.418 13.0309C105.332 12.9885 105.266 12.9141 105.232 12.8228C105.198 12.7315 105.198 12.6303 105.234 12.5396C105.273 12.4496 105.345 12.3791 105.434 12.3436C105.523 12.308 105.622 12.3102 105.71 12.3497Z" fill="white"/>
<path d="M202.763 56.3312C196.024 40.9218 196.272 21.3897 206.731 8.3866C210.229 26.4175 219.785 42.5879 233.706 54.0366C239.09 58.4318 245.522 62.7407 246.993 69.6682C247.908 73.9787 246.611 78.5379 244.368 82.2926C242.125 86.0474 238.999 89.1362 235.908 92.1801L235.561 93.2218C222.112 83.5955 209.501 71.7406 202.763 56.3312Z" fill="#F0F0F0"/>
<path d="M207.021 8.57463C204.614 22.1995 206.402 36.7075 212.252 49.1905C213.517 51.8892 215.027 54.5132 217.049 56.6837C219.036 58.7838 221.53 60.2956 224.273 61.0621C226.816 61.8298 229.504 62.3106 231.823 63.7042C234.267 65.1732 235.784 67.6379 236.374 70.4644C237.097 73.9227 236.575 77.4434 235.949 80.8679C235.254 84.6702 234.473 88.6082 235.481 92.4305C235.603 92.8936 234.901 93.0624 234.779 92.5999C233.025 85.9498 236.434 79.391 235.958 72.705C235.735 69.5852 234.602 66.5157 232.015 64.7081C229.752 63.1275 226.981 62.6292 224.399 61.8748C221.688 61.0827 219.253 59.8728 217.182 57.8658C215.062 55.8128 213.45 53.2444 212.124 50.5909C209.16 44.5505 207.134 38.066 206.119 31.3749C204.92 23.7451 204.992 15.9594 206.332 8.35465C206.415 7.884 207.104 8.10705 207.021 8.57463Z" fill="white"/>
<path d="M210.144 45.2367C207.961 45.96 205.6 45.8575 203.483 44.9475C201.367 44.0375 199.632 42.3792 198.588 40.2689C198.379 39.8411 199.012 39.4842 199.222 39.9125C200.19 41.8795 201.806 43.424 203.779 44.2672C205.752 45.1105 207.951 45.1969 209.98 44.5109C210.421 44.3623 210.582 45.089 210.144 45.2367V45.2367Z" fill="white"/>
<path d="M222.934 60.8485C225.115 56.5606 225.653 51.5802 224.44 46.9005C224.32 46.4369 225.022 46.268 225.142 46.731C226.396 51.6033 225.825 56.785 223.546 61.2419C223.328 61.6665 222.717 61.2708 222.934 60.8485Z" fill="white"/>
<path d="M205.847 23.9872C206.748 23.8893 207.612 23.5616 208.36 23.0334C209.108 22.5053 209.718 21.7932 210.134 20.9613C210.346 20.534 210.957 20.9301 210.746 21.3546C210.282 22.2716 209.608 23.0571 208.783 23.6426C207.957 24.228 207.005 24.5955 206.011 24.713C205.918 24.7322 205.822 24.7142 205.741 24.6625C205.661 24.6108 205.602 24.5294 205.578 24.4349C205.557 24.3387 205.573 24.2377 205.623 24.1539C205.674 24.07 205.754 24.0102 205.847 23.9872Z" fill="white"/>
<path d="M262.113 8.53754C261.988 8.80825 261.863 9.07895 261.741 9.35519C260.076 13.0037 258.7 16.7859 257.628 20.6647C257.541 20.9632 257.456 21.2671 257.377 21.5676C254.89 30.9409 254.108 40.7101 255.07 50.3786C255.456 54.2256 256.125 58.0366 257.071 61.7786C258.377 66.9465 260.191 72.4423 259.782 77.6025C259.745 78.1414 259.676 78.6774 259.575 79.2074L236.816 93.5791C236.748 93.5849 236.683 93.5962 236.616 93.6022L235.732 94.219C235.67 94.0295 235.61 93.8316 235.548 93.6421C235.512 93.5324 235.481 93.4194 235.445 93.3097C235.422 93.2355 235.4 93.1611 235.375 93.0955C235.368 93.0709 235.36 93.046 235.356 93.0267C235.331 92.9611 235.315 92.8975 235.294 92.8372C234.955 91.7321 234.622 90.6225 234.297 89.5086C234.294 89.5032 234.294 89.5032 234.296 89.4946C231.837 81.0004 230.043 72.2193 229.595 63.4358C229.581 63.1715 229.565 62.902 229.562 62.6312C229.381 58.6709 229.514 54.7019 229.958 50.7639C230.209 48.6084 230.564 46.4673 231.024 44.349C232.222 38.8779 234.244 33.6356 237.018 28.8144C242.548 19.2041 250.99 11.5295 261.322 8.74248C261.586 8.67135 261.846 8.60325 262.113 8.53754Z" fill="#F0F0F0"/>
<path d="M262.239 8.8685C252.382 18.2491 245.361 30.9458 242.762 44.5538C242.2 47.4959 241.878 50.5309 242.228 53.5225C242.591 56.4357 243.703 59.1953 245.446 61.5145C247.03 63.7107 248.896 65.7676 249.936 68.3235C251.032 71.0176 250.807 73.9297 249.633 76.5542C248.196 79.7655 245.729 82.2515 243.235 84.5959C240.465 87.199 237.548 89.8573 236.127 93.5365C235.955 93.9822 235.296 93.6799 235.468 93.2348C237.941 86.8337 244.482 83.7187 247.995 78.0838C249.635 75.4544 250.518 72.2983 249.504 69.2445C248.618 66.5741 246.696 64.4514 245.074 62.242C243.37 59.9222 242.131 57.4407 241.646 54.5487C241.149 51.5904 241.357 48.5359 241.844 45.5919C242.996 38.9246 245.154 32.4859 248.24 26.5118C251.726 19.6733 256.318 13.5018 261.817 8.26404C262.157 7.94 262.577 8.54658 262.239 8.8685V8.8685Z" fill="white"/>
<path d="M243.38 40.0847C241.216 39.3034 239.391 37.7522 238.231 35.7081C237.071 33.6639 236.652 31.26 237.048 28.9257C237.13 28.4536 237.843 28.5627 237.761 29.0354C237.388 31.2084 237.779 33.4476 238.863 35.3488C239.947 37.25 241.652 38.688 243.671 39.4032C244.11 39.5591 243.816 40.2398 243.38 40.0847Z" fill="white"/>
<path d="M244.5 60.5106C248.739 58.4448 252.07 54.8032 253.827 50.3118C254.001 49.8667 254.66 50.1689 254.486 50.6135C252.649 55.2838 249.176 59.0662 244.76 61.2059C244.338 61.4095 244.081 60.7132 244.5 60.5106Z" fill="white"/>
<path d="M252.325 20.4436C253.102 20.926 253.982 21.2017 254.887 21.2457C255.792 21.2897 256.694 21.1008 257.51 20.6959C257.929 20.4869 258.186 21.1832 257.77 21.3908C256.866 21.8338 255.87 22.0412 254.87 21.9949C253.87 21.9485 252.896 21.6498 252.033 21.1248C251.948 21.0824 251.882 21.0079 251.848 20.9167C251.813 20.8254 251.814 20.7241 251.85 20.6334C251.889 20.5434 251.961 20.473 252.05 20.4375C252.139 20.4019 252.238 20.4041 252.325 20.4436Z" fill="white"/>
<path d="M66.4773 157.587H239.846V53.8212C239.845 53.0437 239.546 52.2983 239.014 51.7486C238.483 51.1988 237.762 50.8896 237.01 50.8887H69.3139C68.5618 50.8896 67.8409 51.1988 67.3091 51.7486C66.7773 52.2983 66.4782 53.0437 66.4773 53.8212V157.587Z" fill="#CACACA"/>
<path d="M234.49 54.9445H71.8337V150.412H234.49V54.9445Z" fill="white"/>
<path d="M66.3264 154.78V167.585C66.3264 168.115 66.4275 168.641 66.624 169.132C66.8205 169.622 67.1085 170.068 67.4716 170.443C67.8347 170.818 68.2657 171.116 68.7401 171.319C69.2145 171.522 69.7229 171.627 70.2364 171.627H134.226V196.898H133.376C133.309 196.898 133.243 196.911 133.182 196.938C133.12 196.964 133.064 197.003 133.017 197.051C132.97 197.1 132.932 197.158 132.907 197.222C132.881 197.286 132.868 197.354 132.868 197.423V199.18C132.868 199.249 132.881 199.318 132.907 199.381C132.932 199.445 132.97 199.503 133.017 199.552C133.064 199.601 133.12 199.639 133.182 199.666C133.243 199.692 133.309 199.706 133.376 199.706H173.1C173.167 199.706 173.233 199.692 173.294 199.666C173.356 199.639 173.412 199.601 173.459 199.552C173.506 199.503 173.544 199.445 173.569 199.381C173.595 199.318 173.608 199.249 173.608 199.18V197.423C173.608 197.354 173.595 197.286 173.569 197.222C173.544 197.158 173.506 197.1 173.459 197.051C173.412 197.003 173.356 196.964 173.294 196.938C173.233 196.911 173.167 196.898 173.1 196.898H172.25V171.627H236.24C236.753 171.627 237.261 171.522 237.736 171.319C238.21 171.116 238.641 170.818 239.004 170.443C239.367 170.068 239.655 169.622 239.852 169.132C240.048 168.641 240.15 168.115 240.15 167.585V154.78L66.3264 154.78Z" fill="#3F3D56"/>
<path d="M122.412 102.157H82.7738C82.4976 102.156 82.2328 102.043 82.0374 101.841C81.8421 101.639 81.7323 101.365 81.7319 101.08V84.4519C81.7323 84.1664 81.8421 83.8926 82.0374 83.6907C82.2328 83.4887 82.4976 83.3751 82.7738 83.3748H122.412C122.688 83.3751 122.953 83.4887 123.148 83.6907C123.344 83.8926 123.454 84.1664 123.454 84.4519V101.08C123.454 101.365 123.344 101.639 123.148 101.841C122.953 102.043 122.688 102.156 122.412 102.157Z" fill="#6C63FF"/>
<path d="M118.638 110.133H86.5481C86.2165 110.133 85.8985 109.997 85.664 109.755C85.4296 109.512 85.2979 109.183 85.2979 108.841C85.2979 108.498 85.4296 108.169 85.664 107.927C85.8985 107.684 86.2165 107.548 86.5481 107.548H118.638C120.25 107.525 120.266 110.157 118.638 110.133Z" fill="#E4E4E4"/>
<path d="M118.638 116.057H86.5474C86.2158 116.057 85.8978 115.921 85.6633 115.679C85.4288 115.436 85.2971 115.108 85.2971 114.765C85.2971 114.422 85.4288 114.093 85.6633 113.851C85.8978 113.608 86.2158 113.472 86.5474 113.472H118.638C120.25 113.449 120.266 116.081 118.638 116.057Z" fill="#E4E4E4"/>
<path d="M118.638 121.981H86.5481C86.2165 121.981 85.8985 121.845 85.664 121.603C85.4296 121.361 85.2979 121.032 85.2979 120.689C85.2979 120.346 85.4296 120.017 85.664 119.775C85.8985 119.533 86.2165 119.396 86.5481 119.396H118.638C120.25 119.373 120.266 122.005 118.638 121.981Z" fill="#E4E4E4"/>
<path d="M172.981 102.157H133.343C133.067 102.156 132.802 102.043 132.607 101.841C132.411 101.639 132.301 101.365 132.301 101.08V84.4519C132.301 84.1664 132.411 83.8926 132.607 83.6907C132.802 83.4887 133.067 83.3751 133.343 83.3748H172.981C173.257 83.3751 173.522 83.4887 173.718 83.6907C173.913 83.8926 174.023 84.1664 174.023 84.4519V101.08C174.023 101.365 173.913 101.639 173.718 101.841C173.522 102.043 173.257 102.156 172.981 102.157Z" fill="#6C63FF"/>
<path d="M169.207 110.133H137.117C136.786 110.133 136.468 109.997 136.233 109.755C135.999 109.512 135.867 109.183 135.867 108.841C135.867 108.498 135.999 108.169 136.233 107.927C136.468 107.684 136.786 107.548 137.117 107.548H169.207C170.819 107.525 170.835 110.157 169.207 110.133Z" fill="#E4E4E4"/>
<path d="M169.207 116.057H137.117C136.786 116.057 136.468 115.921 136.233 115.679C135.999 115.436 135.867 115.108 135.867 114.765C135.867 114.422 135.999 114.093 136.233 113.851C136.468 113.608 136.786 113.472 137.117 113.472H169.207C170.819 113.449 170.835 116.081 169.207 116.057Z" fill="#E4E4E4"/>
<path d="M169.207 121.981H137.117C136.786 121.981 136.468 121.845 136.233 121.603C135.999 121.361 135.867 121.032 135.867 120.689C135.867 120.346 135.999 120.017 136.233 119.775C136.468 119.533 136.786 119.396 137.117 119.396H169.207C170.819 119.373 170.835 122.005 169.207 121.981Z" fill="#E4E4E4"/>
<path d="M223.552 102.157H183.912C183.636 102.156 183.371 102.043 183.176 101.841C182.98 101.639 182.87 101.365 182.87 101.08V84.4519C182.87 84.1664 182.98 83.8926 183.176 83.6907C183.371 83.4887 183.636 83.3751 183.912 83.3748H223.552C223.828 83.3751 224.093 83.4887 224.288 83.6907C224.484 83.8926 224.593 84.1664 224.594 84.4519V101.08C224.593 101.365 224.484 101.639 224.288 101.841C224.093 102.043 223.828 102.156 223.552 102.157Z" fill="#6C63FF"/>
<path d="M219.776 110.133H187.687C187.355 110.133 187.037 109.997 186.802 109.755C186.568 109.512 186.436 109.183 186.436 108.841C186.436 108.498 186.568 108.169 186.802 107.927C187.037 107.684 187.355 107.548 187.687 107.548H219.776C221.389 107.525 221.405 110.157 219.776 110.133Z" fill="#E4E4E4"/>
<path d="M219.776 116.057H187.685C187.354 116.057 187.036 115.92 186.802 115.678C186.568 115.436 186.437 115.107 186.437 114.765C186.437 114.422 186.568 114.094 186.802 113.852C187.036 113.609 187.354 113.473 187.685 113.472H219.776C221.389 113.449 221.405 116.081 219.776 116.057Z" fill="#E4E4E4"/>
<path d="M219.776 121.981H187.687C187.355 121.981 187.037 121.845 186.802 121.603C186.568 121.361 186.436 121.032 186.436 120.689C186.436 120.346 186.568 120.017 186.802 119.775C187.037 119.533 187.355 119.396 187.687 119.396H219.776C221.389 119.373 221.405 122.005 219.776 121.981Z" fill="#E4E4E4"/>
<path d="M280.645 83.5994L280.753 104.441L281.195 104.415L281.615 112.131L280.795 112.178L280.818 116.813L281.474 116.8L281.607 124.522L280.86 124.537L281.216 192.546C281.223 194.327 280.547 196.038 279.336 197.304C278.125 198.57 276.477 199.288 274.754 199.299L202.088 199.706C200.365 199.714 198.71 199.016 197.485 197.763C196.26 196.511 195.566 194.807 195.556 193.026L194.985 84.0798C194.977 82.299 195.653 80.5877 196.865 79.3217C198.076 78.0556 199.724 77.3381 201.446 77.3267L274.113 76.9196C275.835 76.9122 277.49 77.6113 278.715 78.8635C279.939 80.1157 280.633 81.8188 280.645 83.5994Z" fill="#3F3D56"/>
<path d="M274.86 195.014L201.937 195.423C201.406 195.425 200.896 195.209 200.519 194.823C200.141 194.437 199.927 193.912 199.924 193.364L199.348 83.6932C199.346 83.1443 199.555 82.6169 199.928 82.2267C200.301 81.8364 200.809 81.6153 201.34 81.6117L274.263 81.2028C274.794 81.2005 275.304 81.416 275.681 81.802C276.059 82.188 276.273 82.7131 276.276 83.2619L276.851 192.932C276.854 193.481 276.645 194.009 276.272 194.399C275.899 194.789 275.391 195.01 274.86 195.014Z" fill="white"/>
<path d="M237.514 79.752C237.819 79.752 238.066 79.4962 238.066 79.1806C238.066 78.8651 237.819 78.6093 237.514 78.6093C237.209 78.6093 236.962 78.8651 236.962 79.1806C236.962 79.4962 237.209 79.752 237.514 79.752Z" fill="white"/>
<path d="M259.203 112.071H216.997C216.703 112.071 216.421 111.95 216.213 111.735C216.005 111.52 215.888 111.229 215.888 110.925V93.22C215.888 92.9159 216.005 92.6244 216.213 92.4094C216.421 92.1944 216.703 92.0735 216.997 92.0731H259.203C259.497 92.0735 259.779 92.1944 259.987 92.4094C260.195 92.6244 260.312 92.9159 260.312 93.22V110.925C260.312 111.229 260.195 111.52 259.987 111.735C259.779 111.95 259.497 112.071 259.203 112.071Z" fill="#6C63FF"/>
<path d="M255.184 120.564H221.018C220.665 120.564 220.326 120.419 220.076 120.161C219.827 119.903 219.687 119.553 219.687 119.188C219.687 118.823 219.827 118.473 220.076 118.215C220.326 117.957 220.665 117.812 221.018 117.812H255.184C256.901 117.787 256.918 120.589 255.184 120.564Z" fill="#E4E4E4"/>
<path d="M255.184 126.872H221.016C220.663 126.872 220.325 126.726 220.076 126.468C219.827 126.21 219.687 125.861 219.687 125.496C219.687 125.131 219.827 124.782 220.076 124.524C220.325 124.266 220.663 124.12 221.016 124.12H255.184C256.901 124.095 256.918 126.897 255.184 126.872Z" fill="#E4E4E4"/>
<path d="M255.184 133.18H221.018C220.665 133.18 220.326 133.035 220.076 132.777C219.827 132.519 219.687 132.169 219.687 131.804C219.687 131.439 219.827 131.089 220.076 130.831C220.326 130.573 220.665 130.428 221.018 130.428H255.184C256.901 130.403 256.918 133.205 255.184 133.18Z" fill="#E4E4E4"/>
<path d="M259.203 163.444H216.997C216.703 163.443 216.421 163.322 216.213 163.107C216.005 162.892 215.888 162.601 215.888 162.297V144.592C215.888 144.288 216.005 143.997 216.213 143.782C216.421 143.566 216.703 143.446 216.997 143.445H259.203C259.497 143.446 259.779 143.566 259.987 143.781C260.195 143.996 260.312 144.288 260.312 144.592V162.297C260.312 162.601 260.195 162.892 259.987 163.107C259.779 163.322 259.497 163.443 259.203 163.444Z" fill="#6C63FF"/>
<path d="M255.184 171.937H221.018C220.665 171.937 220.326 171.792 220.076 171.534C219.827 171.275 219.687 170.925 219.687 170.56C219.687 170.195 219.827 169.845 220.076 169.587C220.326 169.329 220.665 169.184 221.018 169.184H255.184C256.901 169.159 256.918 171.962 255.184 171.937Z" fill="#E4E4E4"/>
<path d="M255.184 178.244H221.016C220.663 178.244 220.325 178.098 220.076 177.84C219.827 177.582 219.687 177.233 219.687 176.868C219.687 176.503 219.827 176.154 220.076 175.896C220.325 175.638 220.663 175.492 221.016 175.492H255.184C256.901 175.467 256.918 178.269 255.184 178.244Z" fill="#E4E4E4"/>
<path d="M255.184 184.552H221.018C220.665 184.552 220.326 184.407 220.076 184.149C219.827 183.891 219.687 183.541 219.687 183.176C219.687 182.811 219.827 182.461 220.076 182.203C220.326 181.945 220.665 181.8 221.018 181.8H255.184C256.901 181.775 256.918 184.577 255.184 184.552Z" fill="#E4E4E4"/>
<path d="M82.3175 194.354L82.1771 134.292L82.7067 134.291L82.6812 123.244L82.1515 123.245L82.1082 104.804C82.1066 104.116 81.9738 103.434 81.7174 102.798C81.461 102.163 81.086 101.585 80.6137 101.1C80.1415 100.614 79.5814 100.229 78.9653 99.9669C78.3492 99.7048 77.6892 99.5708 77.023 99.5725L39.271 99.6667C38.6048 99.6683 37.9454 99.8056 37.3305 100.071C36.7156 100.336 36.1572 100.723 35.6873 101.212C35.2173 101.7 34.845 102.279 34.5915 102.916C34.338 103.553 34.2084 104.235 34.21 104.924L34.24 117.782L33.3965 117.804L33.5828 125.527L34.2581 125.51L34.2621 127.214L33.5434 127.233L33.7298 134.956L34.2801 134.942L34.4193 194.473C34.4196 195.162 34.5516 195.845 34.8076 196.481C35.0636 197.117 35.4386 197.695 35.911 198.181C36.3835 198.667 36.9441 199.052 37.5608 199.314C38.1775 199.575 38.838 199.708 39.5046 199.706L77.2565 199.611C78.6015 199.606 79.8897 199.05 80.8385 198.064C81.7872 197.079 82.3192 195.744 82.3175 194.354Z" fill="#3F3D56"/>
<path d="M38.35 197.302C37.8792 197.127 37.4719 196.807 37.1835 196.384C36.895 195.961 36.7394 195.457 36.7378 194.94L36.5264 104.446C36.5249 103.779 36.7795 103.139 37.2343 102.667C37.689 102.195 38.3067 101.928 38.9513 101.927L46.9836 101.907L46.8841 102.16C46.7116 102.6 46.6465 103.078 46.6945 103.55C46.7425 104.023 46.9021 104.476 47.1593 104.869C47.4165 105.263 47.7634 105.585 48.1695 105.808C48.5755 106.03 49.0282 106.146 49.4877 106.144L67.3138 106.1C67.7575 106.06 68.1859 105.913 68.5643 105.67C68.9426 105.427 69.2604 105.095 69.4918 104.702C69.72 104.315 69.8564 103.878 69.89 103.427C69.9236 102.975 69.8535 102.522 69.6854 102.103L69.5848 101.85L77.8817 101.829C78.5262 101.829 79.1446 102.092 79.6014 102.562C80.0582 103.032 80.316 103.67 80.3184 104.337L80.5203 190.676C80.5224 192.444 79.8461 194.14 78.6397 195.393C77.4334 196.647 75.7956 197.354 74.0855 197.36L39.1745 197.447C38.8936 197.448 38.6147 197.399 38.35 197.302Z" fill="white"/>
<path d="M52.1029 104.051C52.408 104.051 52.6554 103.796 52.6554 103.48C52.6554 103.165 52.408 102.909 52.1029 102.909C51.7977 102.909 51.5503 103.165 51.5503 103.48C51.5503 103.796 51.7977 104.051 52.1029 104.051Z" fill="white"/>
<path d="M73.4662 131.863H44.7844C44.5845 131.863 44.3929 131.781 44.2516 131.635C44.1103 131.489 44.0307 131.29 44.0305 131.084V119.052C44.0307 118.846 44.1103 118.647 44.2516 118.501C44.3929 118.355 44.5845 118.273 44.7844 118.273H73.4662C73.666 118.273 73.8577 118.355 73.999 118.501C74.1403 118.647 74.2198 118.846 74.22 119.052V131.084C74.2198 131.29 74.1403 131.489 73.999 131.635C73.8577 131.781 73.666 131.863 73.4662 131.863Z" fill="#6C63FF"/>
<path d="M70.7352 137.634H47.5156C47.3966 137.634 47.2788 137.61 47.1688 137.563C47.0589 137.516 46.9589 137.448 46.8747 137.361C46.7905 137.274 46.7237 137.171 46.6782 137.057C46.6326 136.944 46.6091 136.822 46.6091 136.699C46.6091 136.576 46.6326 136.454 46.6782 136.341C46.7237 136.227 46.7905 136.124 46.8747 136.037C46.9589 135.951 47.0589 135.882 47.1688 135.835C47.2788 135.788 47.3966 135.764 47.5156 135.764H70.7352C71.9019 135.747 71.9136 137.651 70.7352 137.634Z" fill="#E4E4E4"/>
<path d="M70.7352 141.92H47.5155C47.2756 141.92 47.0455 141.822 46.8758 141.647C46.7061 141.471 46.6108 141.234 46.6108 140.986C46.6108 140.738 46.7061 140.5 46.8758 140.325C47.0455 140.149 47.2756 140.051 47.5155 140.051H70.7352C71.9018 140.034 71.9135 141.937 70.7352 141.92Z" fill="#E4E4E4"/>
<path d="M70.7352 146.207H47.5156C47.3966 146.207 47.2788 146.183 47.1688 146.136C47.0589 146.09 46.9589 146.021 46.8747 145.934C46.7905 145.847 46.7237 145.744 46.6782 145.63C46.6326 145.517 46.6091 145.395 46.6091 145.272C46.6091 145.149 46.6326 145.028 46.6782 144.914C46.7237 144.801 46.7905 144.697 46.8747 144.611C46.9589 144.524 47.0589 144.455 47.1688 144.408C47.2788 144.361 47.3966 144.337 47.5156 144.338H70.7352C71.9019 144.321 71.9136 146.224 70.7352 146.207Z" fill="#E4E4E4"/>
<path d="M73.4662 167.918H44.7844C44.5845 167.917 44.3929 167.835 44.2516 167.689C44.1103 167.543 44.0307 167.345 44.0305 167.138V155.107C44.0307 154.9 44.1103 154.702 44.2516 154.556C44.3929 154.41 44.5845 154.328 44.7844 154.327H73.4662C73.666 154.328 73.8577 154.41 73.999 154.556C74.1403 154.702 74.2198 154.9 74.22 155.107V167.138C74.2198 167.345 74.1403 167.543 73.999 167.689C73.8577 167.835 73.666 167.917 73.4662 167.918Z" fill="#6C63FF"/>
<path d="M70.7352 173.688H47.5156C47.3966 173.689 47.2788 173.665 47.1688 173.618C47.0589 173.571 46.9589 173.502 46.8747 173.415C46.7905 173.328 46.7237 173.225 46.6782 173.112C46.6326 172.998 46.6091 172.876 46.6091 172.754C46.6091 172.631 46.6326 172.509 46.6782 172.395C46.7237 172.282 46.7905 172.179 46.8747 172.092C46.9589 172.005 47.0589 171.936 47.1688 171.889C47.2788 171.842 47.3966 171.818 47.5156 171.819H70.7352C71.9019 171.802 71.9136 173.705 70.7352 173.688Z" fill="#E4E4E4"/>
<path d="M70.7352 177.975H47.5155C47.2756 177.975 47.0455 177.877 46.8758 177.701C46.7061 177.526 46.6108 177.288 46.6108 177.04C46.6108 176.792 46.7061 176.555 46.8758 176.379C47.0455 176.204 47.2756 176.105 47.5155 176.105H70.7352C71.9018 176.089 71.9135 177.992 70.7352 177.975Z" fill="#E4E4E4"/>
<path d="M70.7352 182.262H47.5156C47.3966 182.262 47.2788 182.238 47.1688 182.191C47.0589 182.144 46.9589 182.075 46.8747 181.988C46.7905 181.902 46.7237 181.799 46.6782 181.685C46.6326 181.571 46.6091 181.45 46.6091 181.327C46.6091 181.204 46.6326 181.082 46.6782 180.969C46.7237 180.855 46.7905 180.752 46.8747 180.665C46.9589 180.578 47.0589 180.509 47.1688 180.463C47.2788 180.416 47.3966 180.392 47.5156 180.392H70.7352C71.9019 180.375 71.9136 182.279 70.7352 182.262Z" fill="#E4E4E4"/>
<path d="M9.35056 196.419L12.4672 196.418L13.9497 183.991H9.34985L9.35056 196.419Z" fill="#A0616A"/>
<path d="M8.55566 195.367L9.43287 195.367L12.8576 193.927L14.6932 195.366H14.6935C15.7308 195.367 16.7256 195.793 17.4591 196.551C18.1926 197.309 18.6047 198.338 18.6048 199.41V199.542L8.55584 199.542L8.55566 195.367Z" fill="#2F2E41"/>
<path d="M21.428 194.388L24.4678 195.098L28.562 183.313L24.0752 182.266L21.428 194.388Z" fill="#A0616A"/>
<path d="M20.8765 193.181L21.7321 193.381L25.3795 192.756L26.8632 194.579L26.8634 194.579C27.8752 194.815 28.7548 195.457 29.3087 196.364C29.8627 197.271 30.0455 198.368 29.8171 199.414L29.7891 199.542L19.9871 197.254L20.8765 193.181Z" fill="#2F2E41"/>
<path d="M5.40334 120.443C3.94216 124.999 4.09664 129.944 5.75456 135.252L6.46329 165.136C6.46329 165.136 5.40734 184.734 8.8147 191.63H13.7563L16.203 163.347L16.5102 144.363L27.1045 160.379L20.3567 191.167L26.4386 191.729L37.3886 158.317L23.8785 125.9L5.40334 120.443Z" fill="#2F2E41"/>
<path d="M24.7599 126.857L6.79107 123.886C6.3198 123.73 5.88677 123.47 5.52172 123.125C5.15667 122.779 4.86823 122.357 4.67621 121.885C4.48419 121.413 4.39314 120.905 4.4093 120.393C4.42546 119.882 4.54846 119.38 4.76985 118.923L5.58472 117.238L5.26819 99.5339C5.23003 97.2311 5.77918 94.9585 6.86037 92.9447C7.94156 90.931 9.51667 89.2471 11.4272 88.0625L13.1795 86.9793L14.0651 84.6544L22.2307 84.8603L22.2545 87.9095L25.1789 92.7304L25.1787 92.7504L24.9953 118.99L24.1893 121.698L25.4079 124.847L24.7599 126.857Z" fill="#3F3D56"/>
<path d="M18.8956 81.7635C22.9932 81.7635 26.315 78.3293 26.315 74.0931C26.315 69.8569 22.9932 66.4227 18.8956 66.4227C14.7981 66.4227 11.4763 69.8569 11.4763 74.0931C11.4763 78.3293 14.7981 81.7635 18.8956 81.7635Z" fill="#FFB6B6"/>
<path d="M11.1697 75.7652C10.9484 74.8014 11.05 73.4452 11.1751 72.4748C11.3352 71.1951 11.7537 69.9646 12.4033 68.8628C13.0529 67.7611 13.9191 66.8127 14.9459 66.0792C15.3396 65.7701 15.8074 65.5779 16.299 65.5233C16.5446 65.5019 16.7906 65.5614 17.0015 65.6934C17.2125 65.8253 17.3777 66.0228 17.4734 66.2577C17.5971 65.9384 17.7828 65.6487 18.0191 65.4066C18.2553 65.1644 18.5371 64.9748 18.8469 64.8495C19.4694 64.603 20.1388 64.5098 20.8022 64.5772C22.088 64.6868 23.3211 65.1542 24.3707 65.9299C25.4203 66.7055 26.2472 67.7605 26.7636 68.9828C26.9618 69.4695 27.5153 67.6717 27.7664 68.1316C27.9971 68.6096 28.3996 68.9752 28.8878 69.1503C29.3798 69.2922 29.5797 71.3878 29.7733 70.8992C29.9235 71.2603 29.9829 71.6548 29.9459 72.0461C29.9089 72.4373 29.7767 72.8125 29.5617 73.1368C29.3467 73.461 29.0558 73.7237 28.7161 73.9004C28.3764 74.077 27.9991 74.162 27.6191 74.1473C27.1224 74.0809 26.63 73.9835 26.1447 73.8556C25.2536 73.7395 24.3523 73.9647 23.6108 74.4887C22.8693 75.0127 22.3391 75.7992 22.1202 76.6997C21.9848 76.1761 21.7684 75.6784 21.4795 75.2261C21.3329 75.0011 21.1364 74.8156 20.9064 74.6849C20.6764 74.5543 20.4195 74.4823 20.1572 74.4749C19.9064 74.5047 19.6642 74.5871 19.4453 74.7172C19.2265 74.8472 19.0357 75.0221 18.8846 75.2312C18.558 75.6277 18.3127 76.0903 17.9837 76.4846C17.0182 77.6418 15.7123 80.3403 14.3364 80.1435C13.2506 79.9882 11.4719 77.0812 11.1697 75.7652Z" fill="#2F2E41"/>
<path d="M46.554 121.258C46.2382 121.4 45.8962 121.469 45.5521 121.459C45.2079 121.45 44.87 121.362 44.5621 121.203C44.2541 121.044 43.9838 120.816 43.7699 120.538C43.5561 120.259 43.404 119.935 43.3244 119.588L34.998 118.719L37.745 115.233L45.2307 116.593C45.8023 116.494 46.3894 116.614 46.8807 116.932C47.3721 117.25 47.7335 117.743 47.8967 118.318C48.0598 118.893 48.0132 119.51 47.7657 120.052C47.5182 120.594 47.0871 121.023 46.554 121.258Z" fill="#A0616A"/>
<path d="M41.4325 119.876L22.0015 118.025L21.9749 117.993L7.79363 101.194C6.86035 99.7158 6.50896 97.9247 6.8114 96.1873C7.11384 94.45 8.04724 92.8979 9.42048 91.8489C10.1803 91.2699 11.0501 90.8639 11.9727 90.6575C12.8952 90.4511 13.8496 90.4491 14.773 90.6515C15.6963 90.8539 16.5678 91.2562 17.3299 91.8319C18.092 92.4076 18.7276 93.1437 19.1947 93.9917L27.9292 109.848L41.6466 115.546L41.4325 119.876Z" fill="#3F3D56"/>
<path d="M299.629 200.001H0.369981C0.271757 200 0.177653 199.947 0.108298 199.854C0.0389438 199.76 0 199.633 0 199.5C0 199.368 0.0389438 199.241 0.108298 199.147C0.177653 199.053 0.271757 199 0.369981 199H299.629C299.727 199 299.822 199.053 299.891 199.147C299.961 199.24 300 199.368 300 199.5C300 199.633 299.961 199.76 299.891 199.854C299.822 199.948 299.727 200.001 299.629 200.001Z" fill="#CCCCCC"/>
</g>
<defs>
<clipPath id="clip0_105_516">
<rect width="300" height="200" fill="white"/>
</clipPath>
</defs>
</svg>
